<!DOCTYPE svg PUBLIC "-//W3C//DTD SVG 20010904//EN" "http://www.w3.org/TR/2001/REC-SVG-20010904/DTD/svg10.dtd">
<svg version="1.0" xmlns="http://www.w3.org/2000/svg" width="512px" height="512px" viewBox="0 0 5120 5120" preserveAspectRatio="xMidYMid meet">
<g id="layer101" fill="#e9eceb" stroke="none">
 <path d="M2240 5105 c-758 -99 -1417 -513 -1833 -1150 -216 -332 -355 -723 -398 -1122 -18 -171 -7 -546 21 -702 126 -714 532 -1330 1135 -1724 321 -210 690 -344 1075 -392 162 -20 478 -20 640 0 748 93 1418 513 1833 1150 210 323 344 692 392 1075 20 163 20 478 0 640 -92 744 -509 1411 -1140 1826 -329 216 -695 350 -1085 399 -150 18 -501 18 -640 0z"/>
 </g>
<g id="layer102" fill="#1aa05e" stroke="none">
 <path d="M2240 5105 c-758 -99 -1417 -513 -1833 -1150 -216 -332 -355 -723 -398 -1122 -18 -171 -7 -546 21 -702 126 -714 532 -1330 1135 -1724 324 -211 689 -344 1085 -393 152 -19 472 -18 630 1 748 93 1418 513 1833 1150 210 323 344 692 392 1075 20 163 20 478 0 640 -92 744 -509 1411 -1140 1826 -329 216 -695 350 -1085 399 -150 18 -501 18 -640 0z m521 -1400 c234 -41 449 -153 619 -324 108 -108 167 -191 230 -324 73 -152 101 -268 107 -450 7 -169 -4 -256 -49 -397 -58 -182 -150 -333 -287 -471 -220 -220 -505 -339 -816 -339 -652 0 -1165 513 -1165 1166 0 558 403 1039 954 1139 98 18 306 18 407 0z"/>
 <path d="M2395 3476 c-361 -70 -640 -329 -737 -684 -32 -116 -32 -345 0 -461 91 -334 340 -584 672 -673 119 -32 346 -32 465 1 327 89 577 341 667 672 33 121 33 337 0 458 -90 331 -343 587 -667 672 -103 27 -301 34 -400 15z"/>
 </g>
<g id="layer103" fill="#d84f43" stroke="none">
 <path d="M2440 5115 c0 -2 232 -409 515 -904 283 -494 516 -905 517 -912 2 -8 22 -42 46 -75 63 -92 139 -259 168 -371 32 -121 44 -349 24 -471 -77 -488 -465 -883 -948 -967 -111 -20 -285 -19 -403 1 -415 71 -765 371 -898 770 -84 250 -81 530 8 773 17 46 28 81 25 78 -3 -3 -244 -414 -535 -914 -291 -499 -537 -912 -547 -918 -9 -5 -19 -11 -20 -12 -7 -3 102 -157 177 -251 95 -117 295 -314 411 -404 376 -290 799 -465 1270 -524 152 -19 472 -18 630 1 748 93 1418 513 1833 1150 210 323 344 692 392 1075 20 163 20 478 0 640 -92 744 -509 1411 -1140 1826 -329 216 -695 350 -1085 399 -114 14 -440 22 -440 10z"/>
 <path d="M2395 3476 c-361 -70 -640 -329 -737 -684 -32 -116 -32 -345 0 -461 91 -334 340 -584 672 -673 119 -32 346 -32 465 1 327 89 577 341 667 672 33 121 33 337 0 458 -90 331 -343 587 -667 672 -103 27 -301 34 -400 15z"/>
 </g>
<g id="layer104" fill="#4c8bf4" stroke="none">
 <path d="M2440 5115 c0 -2 232 -409 515 -904 283 -494 516 -905 517 -912 2 -8 22 -42 46 -75 63 -92 139 -259 168 -371 32 -121 44 -349 24 -471 -58 -365 -298 -694 -625 -859 -86 -44 -227 -92 -315 -108 -66 -12 57 -13 987 -14 584 -1 1068 -3 1076 -7 32 -12 179 373 231 606 74 335 76 768 5 1099 -142 657 -540 1236 -1104 1607 -329 216 -695 350 -1085 399 -114 14 -440 22 -440 10z"/>
 <path d="M2395 3476 c-361 -70 -640 -329 -737 -684 -32 -116 -32 -345 0 -461 91 -334 340 -584 672 -673 119 -32 346 -32 465 1 327 89 577 341 667 672 33 121 33 337 0 458 -90 331 -343 587 -667 672 -103 27 -301 34 -400 15z"/>
 </g>
<g id="layer105" fill="#fdca42" stroke="none">
 <path d="M2440 5115 c0 -2 232 -409 515 -904 283 -494 516 -905 517 -912 2 -8 22 -42 46 -75 63 -92 139 -259 168 -371 32 -121 44 -349 24 -471 -58 -365 -298 -694 -625 -859 -86 -44 -227 -92 -315 -108 -66 -12 57 -13 987 -14 584 -1 1068 -3 1076 -7 32 -12 179 373 231 606 74 335 76 768 5 1099 -142 657 -540 1236 -1104 1607 -329 216 -695 350 -1085 399 -114 14 -440 22 -440 10z"/>
 </g>

</svg>